<?xml version="1.0" encoding="UTF-8" standalone="no"?>
<!-- Created with Inkscape (http://www.inkscape.org/) -->

<svg
   width="210mm"
   height="210mm"
   viewBox="0 0 210 209.99999"
   version="1.1"
   id="svg1"
   inkscape:version="1.3.2 (091e20e, 2023-11-25, custom)"
   sodipodi:docname="moon.svg"
   xmlns:inkscape="http://www.inkscape.org/namespaces/inkscape"
   xmlns:sodipodi="http://sodipodi.sourceforge.net/DTD/sodipodi-0.dtd"
   xmlns="http://www.w3.org/2000/svg"
   xmlns:svg="http://www.w3.org/2000/svg">
  <sodipodi:namedview
     id="namedview1"
     pagecolor="#ffffff"
     bordercolor="#999999"
     borderopacity="1"
     inkscape:showpageshadow="2"
     inkscape:pageopacity="0"
     inkscape:pagecheckerboard="0"
     inkscape:deskcolor="#d1d1d1"
     inkscape:document-units="mm"
     inkscape:zoom="0.31559402"
     inkscape:cx="114.0706"
     inkscape:cy="204.3765"
     inkscape:window-width="1366"
     inkscape:window-height="697"
     inkscape:window-x="-8"
     inkscape:window-y="-8"
     inkscape:window-maximized="1"
     inkscape:current-layer="layer1" />
  <defs
     id="defs1">
    <inkscape:path-effect
       effect="powerclip"
       id="path-effect37"
       is_visible="true"
       lpeversion="1"
       inverse="true"
       flatten="false"
       hide_clip="false"
       message="Use fill-rule evenodd on &lt;b&gt;fill and stroke&lt;/b&gt; dialog if no flatten result after convert clip to paths." />
    <clipPath
       clipPathUnits="userSpaceOnUse"
       id="clipPath37">
      <ellipse
         style="display:none;fill:#ffffff;fill-opacity:1;stroke-width:0.529098;stroke-linecap:square"
         id="ellipse37"
         cx="-106.42622"
         cy="105"
         rx="30.546219"
         ry="37.353764"
         d="M -75.880005,105 A 30.546219,37.353764 0 0 1 -106.42622,142.35376 30.546219,37.353764 0 0 1 -136.97244,105 30.546219,37.353764 0 0 1 -106.42622,67.646236 30.546219,37.353764 0 0 1 -75.880005,105 Z" />
      <path
         id="lpe_path-effect37"
         style="fill:#ffffff;fill-opacity:1;stroke-width:0.529098;stroke-linecap:square"
         class="powerclip"
         d="M -170.98803,54.945999 H -70.880028 V 155.054 H -170.98803 Z M -75.880005,105 A 30.546219,37.353764 0 0 0 -106.42622,67.646236 30.546219,37.353764 0 0 0 -136.97244,105 30.546219,37.353764 0 0 0 -106.42622,142.35376 30.546219,37.353764 0 0 0 -75.880005,105 Z" />
    </clipPath>
  </defs>
  <g
     inkscape:label="Layer 1"
     inkscape:groupmode="layer"
     id="layer1">
    <g
       id="g17"
       inkscape:label="MOON"
       transform="matrix(1.3947359,0,0,1.3947359,273.67103,-41.447269)">
      <path
         style="fill:#e2dbc9;fill-opacity:1;stroke-width:0.631491;stroke-linecap:square"
         id="circle10"
         clip-path="url(#clipPath37)"
         d="m -75.880028,105 a 45.054001,45.054001 0 0 1 -45.054002,45.054 45.054001,45.054001 0 0 1 -45.054,-45.054 45.054001,45.054001 0 0 1 45.054,-45.054001 A 45.054001,45.054001 0 0 1 -75.880028,105 Z"
         sodipodi:type="arc"
         sodipodi:ry="45.054001"
         sodipodi:rx="45.054001"
         sodipodi:cy="105"
         sodipodi:cx="-120.93403"
         inkscape:path-effect="#path-effect37" />
    </g>
  </g>
</svg>
